<svg id="Layer_1" enable-background="new 0 0 24 24" viewBox="0 0 24 24" xmlns="http://www.w3.org/2000/svg" xmlns:xlink="http://www.w3.org/1999/xlink"><linearGradient id="SVGID_1_" gradientUnits="userSpaceOnUse" x1="1.866" x2="22.134" y1="7.274" y2="16.726"><stop offset="0" stop-color="#fff" stop-opacity=".2"/><stop offset="1" stop-color="#fff" stop-opacity="0"/></linearGradient><g><path d="m12 6c-6.7290039 0-12 2.6357422-12 6s5.2709961 6 12 6 12-2.6357422 12-6-5.2709961-6-12-6z" fill="#999bcd"/><path d="m12 6.25c4.7026978 0 8.7215347 1.2301636 10.7900162 3.0809326-1.9337158-1.987915-5.9931412-3.3309326-10.7900162-3.3309326s-8.8563015 1.3430176-10.7900174 3.3309326c2.0684815-1.850769 6.0873196-3.0809326 10.7900174-3.0809326z" fill="#fff" opacity=".2"/><path d="m11.9999981 17.75c-4.7026978 0-8.7215338-1.2301636-10.7900152-3.0809326 1.9337156 1.987915 5.9931402 3.3309326 10.7900152 3.3309326s8.8563023-1.3430176 10.7900181-3.3309326c-2.0684815 1.850769-6.0873204 3.0809326-10.7900181 3.0809326z" fill="#010101" opacity=".1"/><g fill="#fff"><path d="m9.5786133 9.7636719c-.3793945-.4853516-.949707-.7636719-1.565918-.7636719h-2.4868164l-1.7491455 7h1.0302734l.5001221-2h1.7543945c1.3217773 0 2.4692383-.8959961 2.7900391-2.1782227l.0883789-.3535156c.1494141-.5976562.0175781-1.21875-.3613281-1.7045898zm-.6083985 1.461914-.0883789.3530273c-.2094726.8369141-.9580078 1.4213868-1.8203125 1.4213868h-1.5043945l.75-3h1.7055664c.3061523 0 .5893555.1381836.777832.3793945.1879883.241211.253418.5498047.1796875.8461914z"/><path d="m20.0786133 9.7636719c-.3793945-.4853516-.949707-.7636719-1.565918-.7636719h-2.4868164l-1.7491455 7h1.0302734l.5001221-2h1.7543945c1.3217773 0 2.4692383-.8959961 2.7900391-2.1782227l.0883789-.3535156c.1494141-.5976562.0175781-1.21875-.3613281-1.7045898zm-.6083985 1.461914-.0883789.3530273c-.2094726.8369141-.9580078 1.4213868-1.8203125 1.4213868h-1.5043945l.75-3h1.7055664c.3061523 0 .5893555.1381836.777832.3793945.1879883.241211.253418.5498047.1796875.8461914z"/><path d="m14.6953125 9.6103516c-.315918-.3876953-.7836914-.6103516-1.2841797-.6103516h-1.5849609l.3635254-2h-1.0158691l-1.272522 7h1.0158691l.7271729-4h1.7667847c.1982422 0 .3833008.0878906.5083008.2416992s.1738281.3530273.1381836.5268555l-.812256 3.2314453h1.0310669l.7557983-3.0078125c.1015626-.4897461-.0214843-.9936523-.336914-1.3818359z"/></g><path d="m12 6c-6.7290039 0-12 2.6357422-12 6s5.2709961 6 12 6 12-2.6357422 12-6-5.2709961-6-12-6z" fill="url(#SVGID_1_)"/></g><g/><g/><g/><g/><g/><g/><g/><g/><g/><g/><g/><g/><g/><g/><g/></svg>