<?xml version="1.0" encoding="UTF-8"?>
<!-- Generator: Adobe Illustrator 24.3.0, SVG Export Plug-In . SVG Version: 6.00 Build 0)  -->
<svg xmlns="http://www.w3.org/2000/svg" xmlns:xlink="http://www.w3.org/1999/xlink" version="1.1" id="Capa_1" x="0px" y="0px" viewBox="0 0 511.954 511.954" style="enable-background:new 0 0 511.954 511.954;" xml:space="preserve" width="512" height="512">
<g>
	<g id="amazonpay-logo-rgb_clr">
		<path id="Shape" style="fill-rule:evenodd;clip-rule:evenodd;fill:#232F3E;" d="M39.814,263.756    c-0.663,0.575-1.615,0.671-2.379,0.241c-3.342-2.78-3.948-4.063-5.765-6.71c-5.534,5.632-9.446,7.316-16.601,7.316    C6.594,264.602,0,259.371,0,248.91c0-8.171,4.455-13.723,10.693-16.45c5.462-2.397,13.09-2.834,18.927-3.493v-1.301    c0-2.397,0.187-5.231-1.221-7.307c-1.23-1.854-3.564-2.611-5.65-2.611c-3.841,0-7.262,1.969-8.1,6.042    c-0.106,0.95-0.837,1.71-1.782,1.854l-9.677-1.06c-0.483-0.069-0.916-0.333-1.199-0.731c-0.283-0.397-0.391-0.893-0.298-1.372    c2.237-11.834,12.93-15.407,22.509-15.407c4.901,0,11.299,1.301,15.149,5.008c4.892,4.58,4.455,10.693,4.455,17.332v15.674    c0,4.723,1.96,6.79,3.805,9.33c0.642,0.891,0.784,2.005,0,2.673c-2.058,1.72-5.712,4.892-7.717,6.683l0,0L39.814,263.756z     M29.665,239.215c0,3.921,0.089,7.191-1.88,10.693c-1.604,2.834-4.144,4.58-6.977,4.58c-3.858,0-6.113-2.941-6.113-7.307    c0-8.572,7.69-10.132,14.97-10.132v2.183V239.215z"/>
		
			<path id="Path_00000111892064443368038330000016638241374509145249_" style="fill-rule:evenodd;clip-rule:evenodd;fill:#232F3E;" d="    M67.385,263.364H57.324c-0.933-0.049-1.691-0.772-1.782-1.702v-51.684c0.034-1.036,0.889-1.855,1.925-1.845h9.383    c0.961,0.053,1.729,0.821,1.782,1.782v6.746h0.187c2.442-6.532,7.049-9.57,13.251-9.57c6.202,0,10.239,3.039,13.063,9.57    c1.886-5.027,6.336-8.646,11.641-9.467c5.305-0.822,10.642,1.281,13.96,5.502c3.199,4.349,2.54,10.693,2.54,16.2v32.605    c-0.009,0.505-0.22,0.985-0.584,1.335c-0.365,0.349-0.853,0.539-1.358,0.528h-10.061c-0.99-0.052-1.769-0.863-1.782-1.854v-27.392    c0-2.174,0.187-7.61-0.285-9.677c-0.748-3.475-3.003-4.456-5.917-4.456c-2.671,0.082-5.036,1.746-6.015,4.233    c-1.034,2.62-0.945,6.96-0.945,9.9v27.384c-0.009,0.503-0.218,0.982-0.581,1.332c-0.363,0.349-0.849,0.54-1.353,0.531H84.307    c-0.988-0.056-1.765-0.865-1.782-1.854v-27.392c0-5.765,0.891-14.258-6.238-14.258s-6.951,8.26-6.951,14.258v27.384    c-0.009,0.505-0.22,0.985-0.584,1.335c-0.365,0.349-0.854,0.539-1.358,0.528"/>
		<path style="fill-rule:evenodd;clip-rule:evenodd;fill:#232F3E;" d="M179.547,254.381c-1.844-2.54-3.805-4.607-3.805-9.321    v-15.683c0-6.648,0.472-12.752-4.455-17.332c-3.859-3.707-10.257-5.008-15.149-5.008c-9.579,0-20.272,3.564-22.518,15.407    c-0.095,0.482,0.012,0.981,0.297,1.381c0.285,0.4,0.722,0.664,1.209,0.731l9.758,1.051c0.944-0.146,1.673-0.905,1.782-1.854    c0.847-4.072,4.251-6.042,8.091-6.042c2.076,0,4.456,0.766,5.65,2.62c1.417,2.067,1.23,4.901,1.23,7.298v1.274    c-5.837,0.65-13.473,1.087-18.927,3.484c-6.309,2.727-10.738,8.278-10.738,16.459c0,10.453,6.594,15.683,15.068,15.683    c7.129,0,11.067-1.684,16.592-7.316c1.836,2.673,2.433,3.93,5.774,6.71c0.764,0.427,1.712,0.335,2.379-0.232l0,0    c2.005-1.782,5.658-4.963,7.717-6.683C180.367,256.395,180.225,255.308,179.547,254.381z M159.765,249.863    c-1.595,2.825-4.144,4.571-6.968,4.571c-3.858,0-6.113-2.941-6.113-7.298c0-8.581,7.69-10.132,14.97-10.132v2.174    C161.654,243.109,161.725,246.37,159.765,249.863z"/>
		<path style="fill-rule:evenodd;clip-rule:evenodd;fill:#232F3E;" d="M188.066,217.187v-7.387    c-0.023-0.504,0.168-0.994,0.526-1.349c0.358-0.355,0.85-0.541,1.354-0.513h33.087c0.503-0.017,0.991,0.172,1.351,0.524    c0.36,0.352,0.561,0.835,0.556,1.339v6.336c0,1.06-0.891,2.451-2.486,4.643l-17.145,24.469c6.363-0.151,13.09,0.802,18.873,4.055    c1.068,0.57,1.748,1.668,1.782,2.878v7.913c0,1.087-1.185,2.343-2.442,1.693c-10.975-5.641-24.003-5.618-34.958,0.062    c-1.15,0.615-2.353-0.624-2.353-1.711v-7.53c-0.105-1.775,0.323-3.541,1.23-5.07l19.863-28.515h-17.323    c-0.505,0.02-0.995-0.169-1.357-0.52c-0.362-0.352-0.564-0.837-0.559-1.342"/>
		<path style="fill-rule:evenodd;clip-rule:evenodd;fill:#232F3E;" d="M253.509,217.561c-7.423,0-7.895,10.105-7.895,16.414    c0,6.309-0.089,19.782,7.797,19.782c7.886,0,8.18-10.871,8.18-17.501c0-4.349-0.187-9.57-1.506-13.696    C258.953,218.996,256.699,217.561,253.509,217.561z M253.411,207.01c14.944,0,23.026,12.832,23.026,29.139    c0,15.764-8.911,28.266-23.026,28.266c-14.659,0-22.643-12.832-22.643-28.809S238.85,207.01,253.411,207.01z"/>
		<path style="fill-rule:evenodd;clip-rule:evenodd;fill:#232F3E;" d="M295.916,263.257h-10.034c-0.99-0.052-1.77-0.863-1.782-1.854    v-51.684c0.106-0.981,0.947-1.717,1.934-1.693h9.339c0.85,0.027,1.579,0.617,1.782,1.443v7.904h0.196    c2.816-7.066,6.763-10.435,13.714-10.435c4.509,0,8.911,1.631,11.754,6.086c2.629,4.135,2.629,11.094,2.629,16.093v32.516    c-0.147,0.949-0.974,1.642-1.934,1.622h-10.123c-0.908-0.039-1.658-0.722-1.782-1.622v-28.061c0-5.65,0.659-13.919-6.3-13.919    c-2.584,0.119-4.861,1.735-5.828,4.135c-1.408,3.154-1.595,6.309-1.595,9.802v27.811c-0.039,1.049-0.911,1.874-1.96,1.854"/>
		<path style="fill-rule:evenodd;clip-rule:evenodd;fill:#232F3E;" d="M377.826,215.877c-5.116,0.04-10.08,1.745-14.142,4.857    v29.406c4.503,3.386,9.146,5.076,13.928,5.07c9.707,0,14.56-6.535,14.56-19.604c0-13.07-4.782-19.649-14.347-19.738V215.877z     M362.944,214.504c2.529-2.23,5.419-4.014,8.546-5.275c2.954-1.177,6.105-1.782,9.285-1.782c3.161-0.059,6.296,0.574,9.187,1.854    c2.724,1.249,5.11,3.131,6.96,5.489c2.013,2.613,3.502,5.59,4.384,8.768c1.069,3.767,1.585,7.669,1.533,11.584    c0.049,3.999-0.504,7.982-1.64,11.816c-0.951,3.254-2.508,6.298-4.589,8.973c-1.933,2.432-4.388,4.399-7.182,5.757    c-2.937,1.363-6.146,2.037-9.383,1.969c-6.05,0.1-11.906-2.134-16.352-6.238v24.737c0.085,0.582-0.11,1.17-0.526,1.586    c-0.416,0.416-1.004,0.611-1.586,0.526h-6.238c-0.582,0.085-1.17-0.11-1.586-0.526c-0.416-0.416-0.611-1.004-0.526-1.586v-71.03    c-0.081-0.581,0.115-1.167,0.53-1.582c0.415-0.415,1-0.611,1.582-0.53h4.643c0.606-0.057,1.208,0.137,1.668,0.536    c0.46,0.399,0.736,0.968,0.765,1.576L362.944,214.504L362.944,214.504z"/>
		<path style="fill-rule:evenodd;clip-rule:evenodd;fill:#232F3E;" d="M429.162,256.012c2.487-0.032,4.95-0.493,7.28-1.364    c2.615-0.962,5.07-2.314,7.28-4.01v-10.773c-1.829-0.43-3.679-0.763-5.543-0.998c-1.87-0.245-3.754-0.37-5.641-0.374    c-7.96,0-11.938,3.062-11.932,9.187c0,2.673,0.74,4.732,2.219,6.175C424.306,255.299,426.417,256.018,429.162,256.012z     M416.811,218.211l-0.793,0.267c-0.286,0.102-0.587,0.156-0.891,0.16c-0.891,0-1.372-0.633-1.372-1.907v-2.825    c-0.068-0.714,0.081-1.431,0.428-2.058c0.456-0.511,1.036-0.895,1.684-1.114c2.68-1.089,5.475-1.869,8.332-2.326    c3.273-0.593,6.592-0.891,9.918-0.891c6.683,0,11.608,1.369,14.774,4.108c3.166,2.739,4.753,6.995,4.758,12.769v36.054    c0.081,0.581-0.115,1.167-0.53,1.582c-0.415,0.415-1.001,0.611-1.582,0.53h-4.545c-0.577,0.057-1.151-0.126-1.589-0.505    c-0.438-0.379-0.701-0.922-0.728-1.5l-0.535-3.484c-2.486,2.154-5.322,3.865-8.385,5.061c-2.905,1.164-6.004,1.769-9.134,1.782    c-5.061,0-9.071-1.426-12.03-4.277c-2.958-2.852-4.444-6.668-4.456-11.451c0-5.133,1.83-9.232,5.489-12.297    c3.659-3.065,8.584-4.595,14.775-4.589c4.486,0.069,8.949,0.667,13.295,1.782v-6.933c0-3.802-0.844-6.475-2.531-8.02    c-1.687-1.545-4.643-2.32-8.866-2.326C427.047,215.855,421.83,216.666,416.811,218.211z"/>
		<path style="fill-rule:evenodd;clip-rule:evenodd;fill:#232F3E;" d="M487.992,271.909c-1.907,4.853-4.108,8.338-6.603,10.453    c-2.495,2.115-5.762,3.169-9.802,3.163c-2.029,0.027-4.053-0.222-6.015-0.74c-0.66-0.141-1.254-0.495-1.693-1.007    c-0.4-0.645-0.584-1.4-0.526-2.156v-2.745c0-1.337,0.526-2.005,1.586-2.005c0.534,0.024,1.064,0.093,1.586,0.205    c0.939,0.162,1.89,0.234,2.843,0.214c2.24,0.141,4.456-0.533,6.238-1.898c1.479-1.265,2.816-3.588,4.01-6.968l2.005-5.347    l-20.335-50.267c-0.382-0.8-0.629-1.659-0.731-2.54c0-0.838,0.49-1.265,1.47-1.265h6.336c0.812-0.078,1.627,0.106,2.326,0.526    c0.596,0.666,1.026,1.462,1.256,2.326l14.783,40.946l14.258-40.946c0.23-0.863,0.66-1.66,1.257-2.326    c0.699-0.419,1.514-0.604,2.326-0.526h5.908c0.989,0,1.479,0.428,1.479,1.265c-0.106,0.881-0.356,1.739-0.74,2.54L487.992,271.909    "/>
		<path style="fill-rule:evenodd;clip-rule:evenodd;fill:#FF9900;" d="M201.718,283.627c-18.9,13.946-46.337,21.386-69.898,21.386    c-31.52,0.161-61.964-11.454-85.367-32.57c-1.782-1.595-0.196-3.778,1.934-2.54c24.309,14.142,54.357,22.661,85.421,22.661    c22.39-0.122,44.536-4.665,65.166-13.366c3.19-1.355,5.872,2.103,2.745,4.455 M209.577,274.68    c2.424,3.092-2.673,15.853-4.963,21.547c-0.695,1.72,0.793,2.415,2.353,1.114c10.132-8.483,12.752-26.252,10.693-28.818    c-2.058-2.566-19.782-4.741-30.6,2.86c-1.666,1.167-1.381,2.78,0.472,2.557c6.086-0.731,19.649-2.361,22.064,0.74"/>
	</g>
</g>















</svg>
